<svg width="28" height="28" viewBox="0 0 28 28" fill="none" xmlns="http://www.w3.org/2000/svg">
<path d="M14 2.53012C17.7108 2.53012 18.2169 2.53012 19.7349 2.53012C21.0843 2.53012 21.759 2.86747 22.265 3.03614C22.9397 3.37349 23.4458 3.54217 23.9518 4.04819C24.4578 4.55421 24.7952 5.06024 24.9638 5.73494C25.1325 6.24096 25.3012 6.91566 25.4699 8.26506C25.4699 9.78313 25.4699 10.1205 25.4699 14C25.4699 17.8795 25.4699 18.2169 25.4699 19.7349C25.4699 21.0843 25.1325 21.759 24.9638 22.265C24.6265 22.9397 24.4578 23.4458 23.9518 23.9518C23.4458 24.4578 22.9397 24.7952 22.265 24.9638C21.759 25.1325 21.0843 25.3012 19.7349 25.4699C18.2169 25.4699 17.8795 25.4699 14 25.4699C10.1205 25.4699 9.78313 25.4699 8.26506 25.4699C6.91566 25.4699 6.24096 25.1325 5.73494 24.9638C5.06024 24.6265 4.55421 24.4578 4.04819 23.9518C3.54217 23.4458 3.20482 22.9397 3.03614 22.265C2.86747 21.759 2.69879 21.0843 2.53012 19.7349C2.53012 18.2169 2.53012 17.8795 2.53012 14C2.53012 10.1205 2.53012 9.78313 2.53012 8.26506C2.53012 6.91566 2.86747 6.24096 3.03614 5.73494C3.37349 5.06024 3.54217 4.55421 4.04819 4.04819C4.55421 3.54217 5.06024 3.20482 5.73494 3.03614C6.24096 2.86747 6.91566 2.69879 8.26506 2.53012C9.78313 2.53012 10.2891 2.53012 14 2.53012ZM14 0C10.1205 0 9.78313 0 8.26506 0C6.74698 0 5.73494 0.33735 4.89156 0.674699C4.04819 1.01205 3.20482 1.51807 2.36145 2.36145C1.51807 3.20482 1.18072 3.87952 0.674699 4.89156C0.33735 5.73494 0.168675 6.74698 0 8.26506C0 9.78313 0 10.2891 0 14C0 17.8795 0 18.2169 0 19.7349C0 21.253 0.33735 22.265 0.674699 23.1084C1.01205 23.9518 1.51807 24.7952 2.36145 25.6385C3.20482 26.4819 3.87952 26.8193 4.89156 27.3253C5.73494 27.6626 6.74698 27.8313 8.26506 28C9.78313 28 10.2891 28 14 28C17.7108 28 18.2169 28 19.7349 28C21.253 28 22.265 27.6626 23.1084 27.3253C23.9518 26.9879 24.7952 26.4819 25.6385 25.6385C26.4819 24.7952 26.8193 24.1205 27.3253 23.1084C27.6626 22.265 27.8313 21.253 28 19.7349C28 18.2169 28 17.7108 28 14C28 10.2891 28 9.78313 28 8.26506C28 6.74698 27.6626 5.73494 27.3253 4.89156C26.9879 4.04819 26.4819 3.20482 25.6385 2.36145C24.7952 1.51807 24.1205 1.18072 23.1084 0.674699C22.265 0.33735 21.253 0.168675 19.7349 0C18.2169 0 17.8795 0 14 0Z" fill="white"/>
<path d="M14 6.74698C9.9518 6.74698 6.74698 9.9518 6.74698 14C6.74698 18.0482 9.9518 21.253 14 21.253C18.0482 21.253 21.253 18.0482 21.253 14C21.253 9.9518 18.0482 6.74698 14 6.74698ZM14 18.7229C11.4699 18.7229 9.2771 16.6988 9.2771 14C9.2771 11.4699 11.3012 9.2771 14 9.2771C16.5301 9.2771 18.7229 11.3012 18.7229 14C18.7229 16.5301 16.5301 18.7229 14 18.7229Z" fill="white"/>
<path d="M21.4217 8.26506C22.3532 8.26506 23.1084 7.50987 23.1084 6.57831C23.1084 5.64675 22.3532 4.89156 21.4217 4.89156C20.4901 4.89156 19.7349 5.64675 19.7349 6.57831C19.7349 7.50987 20.4901 8.26506 21.4217 8.26506Z" fill="white"/>
</svg>
