<svg width="207" height="58" viewBox="0 0 207 58" fill="none" xmlns="http://www.w3.org/2000/svg">
<g clip-path="url(#clip0_702_16)">
<path d="M30.6022 57.3473C28.2731 58.2191 25.7084 58.2191 23.3793 57.3473C16.0256 54.5941 0 47.9108 0 41.9249V16.0763C0 10.0892 16.0256 3.40587 23.3805 0.653843C25.7096 -0.217948 28.2743 -0.217948 30.6034 0.653843C37.9582 3.40587 53.9839 10.0904 53.9839 16.0763V41.9249C53.9827 47.9108 37.9571 54.5941 30.6022 57.3473Z" fill="#E21F25"/>
<path d="M13.1804 13.1299H26.9123C35.7822 13.1299 40.1494 14.6602 40.1494 20.784C40.1494 26.7275 35.7374 26.9065 32.3598 27.2223V29.1131C37.177 29.2934 42.4903 29.6079 42.4903 36.2724C42.4903 43.7462 35.7822 44.8713 27.2269 44.8713H13.1804V13.1299ZM27.7228 25.1512C30.244 25.1512 32.2255 25.3314 32.2255 22.4498C32.2255 19.6589 30.4242 19.7037 27.7228 19.7037H21.42V25.1512H27.7228ZM27.6781 37.8923C31.865 37.8923 34.2059 38.0278 34.2059 34.6961C34.2059 31.3644 31.7295 31.5447 27.6781 31.5447H21.42V37.8934H27.6781V37.8923Z" fill="#F2F2F2"/>
<path d="M65.6248 19.6318H69.926V25.9947L69.1213 28.3838H70.1781C70.8319 26.7486 71.9641 25.1394 75.1332 25.1394C78.8559 25.1394 80.616 28.1824 80.616 31.7285C80.616 35.3004 78.8559 38.3682 75.1332 38.3682C71.9641 38.3682 70.8319 36.7589 70.1781 35.099H69.1213L69.926 37.5141V38.1173H65.6248V19.6318ZM73.0951 34.5712C75.2333 34.5712 76.3148 33.7159 76.3148 31.7285C76.3148 29.7669 75.2333 28.9364 73.0951 28.9364C70.9827 28.9364 69.926 29.7658 69.926 31.7285C69.926 33.7418 70.9816 34.5712 73.0951 34.5712Z" fill="white"/>
<path d="M84.7912 25.3915H93.3171V29.1897H86.8788V38.1185H82.5528V27.5792C82.5516 26.1455 83.3574 25.3915 84.7912 25.3915Z" fill="white"/>
<path d="M99.1014 30.7236L102.975 30.2959C102.975 28.9635 102.221 28.4345 100.761 28.4345C99.2016 28.4345 98.3215 29.0884 98.2709 30.2205H94.2218C94.2972 26.8759 97.114 25.1406 100.611 25.1406C104.132 25.1406 107.301 26.7251 107.301 30.3972V34.3215H109.136V38.1196H106.218C104.986 38.1196 104.257 37.4151 104.257 36.1829V36.0568L104.935 34.5229H103.879C103.4 36.5858 102.194 38.3706 98.622 38.3706C94.5976 38.3706 93.919 35.9555 93.919 34.6478C93.9202 32.433 95.2031 31.1253 99.1014 30.7236ZM99.7305 34.9482C101.517 34.9482 102.975 33.9928 102.975 32.4577L99.9061 32.9101C98.7739 33.0856 98.146 33.2117 98.146 33.9162C98.146 34.7479 98.9 34.9482 99.7305 34.9482Z" fill="white"/>
<path d="M110.722 25.3915H115.023V26.8253L114.219 29.2144H115.276C115.779 26.9513 117.338 25.1394 120.054 25.1394C123.349 25.1394 125.386 27.3271 125.386 31.3515V38.1173H121.06V32.056C121.06 29.767 120.431 28.9376 118.52 28.9376C116.432 28.9376 115.023 29.9189 115.023 33.5145V38.1173H110.722V25.3915Z" fill="white"/>
<path d="M127.121 31.7296C127.121 28.1836 128.881 25.1406 132.604 25.1406C135.773 25.1406 136.905 26.7498 137.559 28.385H138.641L137.81 25.9959V19.633H142.111V38.1185H137.81V37.5153L138.641 35.1002H137.559C136.905 36.7601 135.773 38.3694 132.604 38.3694C128.881 38.3694 127.121 35.3005 127.121 31.7296ZM134.641 34.5712C136.753 34.5712 137.81 33.7407 137.81 31.7285C137.81 29.7669 136.753 28.9364 134.641 28.9364C132.529 28.9364 131.421 29.7658 131.421 31.7285C131.423 33.7159 132.529 34.5712 134.641 34.5712Z" fill="white"/>
<path d="M144.199 25.3915H148.5V25.9947L147.696 28.3839H148.752C149.406 26.7487 150.538 25.1394 153.732 25.1394C157.429 25.1394 159.19 28.2083 159.19 31.7544C159.19 35.3264 157.43 38.3694 153.732 38.3694C150.538 38.3694 149.406 36.7601 148.752 35.1002H147.696L148.5 37.5153V43.4258H144.199V25.3915ZM151.669 34.5712C153.808 34.5712 154.889 33.7666 154.889 31.7544C154.889 29.767 153.808 28.9376 151.669 28.9376C149.557 28.9376 148.5 29.767 148.5 31.7544C148.5 33.7666 149.557 34.5712 151.669 34.5712Z" fill="white"/>
<path d="M165.779 30.7236L169.653 30.2959C169.653 28.9635 168.898 28.4345 167.439 28.4345C165.879 28.4345 164.999 29.0884 164.949 30.2205H160.899C160.975 26.8759 163.792 25.1406 167.288 25.1406C170.81 25.1406 173.979 26.7251 173.979 30.3972V34.3215H175.814V38.1196H172.896C171.664 38.1196 170.934 37.4151 170.934 36.1829V36.0568L171.613 34.5229H170.556C170.078 36.5858 168.872 38.3706 165.3 38.3706C161.275 38.3706 160.597 35.9555 160.597 34.6478C160.599 32.433 161.881 31.1253 165.779 30.7236ZM166.408 34.9482C168.194 34.9482 169.653 33.9928 169.653 32.4577L166.584 32.9101C165.452 33.0856 164.824 33.2117 164.824 33.9162C164.824 34.7479 165.579 34.9482 166.408 34.9482Z" fill="white"/>
<path d="M183.813 25.1394C187.461 25.1394 190.63 27.1516 190.781 30.7236H186.455C186.329 29.7681 185.398 28.9376 183.813 28.9376C182.304 28.9376 181.097 29.893 181.097 31.7297C181.097 33.5911 182.304 34.5724 183.813 34.5724C185.398 34.5724 186.329 33.7419 186.455 32.7864H190.781C190.63 36.3584 187.461 38.3694 183.813 38.3694C179.764 38.3694 176.797 36.0804 176.797 31.7297C176.797 27.4037 179.764 25.1394 183.813 25.1394Z" fill="white"/>
<path d="M192.693 19.6318H196.994V29.8682H198.176L201.797 25.3915H206.978L201.622 31.5788L206.978 38.1185H201.797L197.999 33.2388H196.993V38.1185H192.692V19.6318H192.693Z" fill="white"/>
</g>
<defs>
<clipPath id="clip0_702_16">
<rect width="206.978" height="58" fill="white"/>
</clipPath>
</defs>
</svg>
