<svg width="32" height="32" viewBox="0 0 32 32" fill="none" xmlns="http://www.w3.org/2000/svg">
<path d="M0 16C0 24.8366 7.16344 32 16 32C24.8366 32 32 24.8366 32 16C32 7.16344 24.8366 0 16 0C7.16344 0 0 7.16344 0 16Z" fill="#007DF0"/>
<path d="M22.5843 19.7239L19.3958 18.3574C19.2595 18.2993 19.1082 18.2871 18.9644 18.3225C18.8206 18.358 18.6923 18.4391 18.5986 18.5538L17.1865 20.2791C14.9704 19.2342 13.1869 17.4507 12.142 15.2346L13.8673 13.8225C13.9822 13.729 14.0636 13.6007 14.099 13.4568C14.1344 13.313 14.1221 13.1615 14.0637 13.0254L12.6972 9.83678C12.6332 9.69 12.5199 9.57015 12.377 9.49791C12.2341 9.42567 12.0705 9.40556 11.9143 9.44106L8.95348 10.1243C8.80293 10.1591 8.6686 10.2439 8.57243 10.3648C8.47626 10.4857 8.42392 10.6357 8.42395 10.7902C8.42395 18.0926 14.3427 24 21.6337 24C21.7883 24.0001 21.9383 23.9478 22.0593 23.8516C22.1803 23.7554 22.2651 23.6211 22.2999 23.4705L22.9832 20.5097C23.0184 20.3527 22.9979 20.1884 22.9251 20.045C22.8523 19.9016 22.7318 19.7881 22.5843 19.7239Z" fill="white"/>
</svg>
